# xmcd CD database file
#
# Track frame offsets:
#	150
#	15192
#	46044
#	60431
#	74115
#	86292
#	99535
#	113272
#	126375
#	137447
#	149723
#	163219
#	176483
#	186690
#	197652
#	212278
#	225928
#	238854
#	252083
#	264784
#	280193
#	292867
#
# Disc length: 4092 seconds
#
# Revision: 0
# Processed by: cddbd v1.5.1PL0 Copyright (c) Steve Scherf et al.
# Submitted via: CDex 1.51
#
DISCID=2e0ffa16
DTITLE=Saga Blues - Cotton Patch and Tobacco Belt Blues
DYEAR=2004
DGENRE=Blues
TTITLE0=Garfield Akers - Cottonfield Blues
TTITLE1=Son House - Government Fleet Blues
TTITLE2=Joe Calicot - Fare Thee Well Blues
TTITLE3=John D. Fox - The Moaning Blues
TTITLE4=Blind Joe Reynolds - Third Street Woman Blues
TTITLE5=Robert Hill - I'm Going to Write and Tell My Mother
TTITLE6=Robert Petway - Rocking Chair Blues
TTITLE7=Mississippi Matilda - Hard Working Woman
TTITLE8=Pinetop Slim - Applejack Boogie
TTITLE9=Dan Pickett - Baby How Long
TTITLE10=David Wylie - Shackles Around My Body
TTITLE11=Blind Boy Fuller - I'm a Stranger Here
TTITLE12=Richard Trice - Lazy Bug Blues
TTITLE13=John Tinsley - Keep Your Hands Off Her
TTITLE14=Willie Trice - Come On in Her Mama
TTITLE15=Bull City Red - Black Woman and Poison Blues
TTITLE16=Dipper Floyd Council - Looking for My Baby
TTITLE17=Bob Campbell - Worried All the Time
TTITLE18=Cedar Creek Sheik - V-8 Ford
TTITLE19=Roosevelt Antrim - Complaint to Make
TTITLE20=Sonny Jones - I'm Pretty Good At It
TTITLE21=Alec Seward - Little Annie Blues
EXTD=YEAR: 2004
EXTT0=
EXTT1=
EXTT2=
EXTT3=
EXTT4=
EXTT5=
EXTT6=
EXTT7=
EXTT8=
EXTT9=
EXTT10=
EXTT11=
EXTT12=
EXTT13=
EXTT14=
EXTT15=
EXTT16=
EXTT17=
EXTT18=
EXTT19=
EXTT20=
EXTT21=
PLAYORDER=
